<?xml version="1.0" encoding="utf-8"?>
<!-- Generator: Adobe Illustrator 16.0.0, SVG Export Plug-In . SVG Version: 6.00 Build 0)  -->
<!DOCTYPE svg PUBLIC "-//W3C//DTD SVG 1.1 Basic//EN" "http://www.w3.org/Graphics/SVG/1.1/DTD/svg11-basic.dtd">
<svg version="1.1" baseProfile="basic" xmlns="http://www.w3.org/2000/svg" xmlns:xlink="http://www.w3.org/1999/xlink" x="0px"
	 y="0px" width="232px" height="40px" viewBox="-3 -4 232 40" xml:space="preserve">
<g id="Layer_2" style="opacity:0.2;">
	<g id="layer1" inkscape:label="Ebene 1" inkscape:groupmode="layer">
		<g id="g1" transform="matrix(0.89999982,0,0,0.89999982,-252.39993,-292.69994)">
			<path id="path1" style="fill:#ADA79E;stroke:#939393;stroke-width:0.1417;stroke-miterlimit:10;" d="M375,348.666
				c-4.667,0-5.667-3.333-5.667-5.666c0-6.667-4.333-16.667-16.667-16.667c-8.333,0-13,4.667-15,9.667
				c-1.334-1-1.667-2.667-1.667-4.334c0-5.333,0-5.333,0-5.333c-11,0-11,0-11,0c0,5.667,0,5.667,0,5.667c0,0.667,0,7.333,5,12
				c1,0.999,2.333,2.333,4.666,3.333c-1,0.666-2.333,1.332-4,1.332c-6.334,0-6.334,0-6.334,0C324.666,347,325,345,325,343
				c0-12.333-10-16.667-16.667-16.667c-11,0-11,0-11,0c0,11,0,11,0,11c11,0,11,0,11,0c2.333,0.334,5.667,1.334,5.667,5.667
				c0,4.334-3.333,5.333-5.667,5.666c-7.667,0-7.667,0-7.667,0c-2,0-3.333,0-3.333,0c-9.334,0-14,5.334-16,11
				c49.334,0,49.334,0,49.334,0c6,0,9.666-2.333,11.667-4.667c0.333,0,0.666-0.333,0.666-0.666c3.333,0.666,4,3,4.334,5.333
				c11,0,11,0,11,0c0-5.666-3-13.333-11.334-16c0.334-0.333,0.334-0.666,0.334-0.666c0-2.667,1-5.667,5.333-5.667
				c4.667,0,5.667,3,5.667,5.667c0,6.667,4.333,16.667,16.667,16.667c11,0,11,0,11,0c0-11,0-11,0-11H375z"/>
			<path id="path2" style="fill:#ADA79E;stroke:#939393;stroke-width:0.1417;stroke-miterlimit:10;" d="M508.333,341.333
				c-10-15-10-15-10-15c-6.667,0-6.667,0-6.667,0c-5.666,0-5.666,0-5.666,0C486,343,486,343,486,343c0,2.333-1,5.666-5.333,5.666
				l0,0c-5.667,0-5.667,0-5.667,0l0,0c-10.999,0-10.999,0-10.999,0c-2.667-0.333-5.667-1.332-5.667-5.666c0-5.667,0-5.667,0-5.667
				c22.334,0,22.334,0,22.334,0c0-11,0-11,0-11c-33.333,0-33.333,0-33.333,0c-11.333,0-16,8.666-16.667,15c-10-15-10-15-10-15
				c-6.667,0-6.667,0-6.667,0c-5.667,0-5.667,0-5.667,0c0,16.667,0,16.667,0,16.667c0,2.333-0.999,5.666-5.666,5.666
				c-11,0-11,0-11,0c0,11,0,11,0,11c11,0,11,0,11,0c11.334,0,16-8.666,16.667-15c10,15,10,15,10,15c6.667,0,6.667,0,6.667,0
				c5.666,0,5.666,0,5.666,0c0-16.667,0-16.667,0-16.667c0-2.667,1-5.667,5.667-5.667c0,5.667,0,5.667,0,5.667
				c0,12.333,10,16.667,16.667,16.667c16.667,0,16.667,0,16.667,0c11.334,0,15.666-8.666,16.334-15c10.333,15,10.333,15,10.333,15
				c6.667,0,6.667,0,6.667,0c5.333,0,5.333,0,5.333,0c0-16.667,0-16.667,0-16.667c0-2.667,1-5.667,5.666-5.667
				c5.667,0,5.667,0,5.667,0c0-11,0-11,0-11c-5.667,0-5.667,0-5.667,0C513.667,326.333,509,335,508.333,341.333z"/>
		</g>
	</g>
</g>
<g id="svg1" xmlns:inkscape="http://www.inkscape.org/namespaces/inkscape" xmlns:sodipodi="http://sodipodi.sourceforge.net/DTD/sodipodi-0.dtd" xmlns:svg="http://www.w3.org/2000/svg" sodipodi:docname="pxlngn.svg" inkscape:version="1.4 (86a8ad7, 2024-10-11)">
	
		<sodipodi:namedview  inkscape:cy="480.40851" inkscape:cx="250.33532" inkscape:zoom="0.76497396" borderopacity="0.25" bordercolor="#000000" pagecolor="#ffffff" id="namedview1" inkscape:window-x="-8" inkscape:window-height="1377" inkscape:document-units="px" inkscape:deskcolor="#d1d1d1" inkscape:pagecheckerboard="0" inkscape:window-width="2560" inkscape:window-maximized="1" inkscape:pageopacity="0.0" inkscape:showpageshadow="2" inkscape:window-y="-8" inkscape:current-layer="layer1">
		</sodipodi:namedview>
	
		<circle style="fill:none;stroke:#B2B2B2;stroke-width:0.4252;stroke-miterlimit:10;stroke-dasharray:2.8715,1.4355;" cx="25.274" cy="16" r="15"/>
	
		<circle style="fill:none;stroke:#B2B2B2;stroke-width:0.4252;stroke-miterlimit:10;stroke-dasharray:2.8715,1.4355;" cx="15" cy="35.943" r="15"/>
	
		<circle style="fill:none;stroke:#B2B2B2;stroke-width:0.4252;stroke-miterlimit:10;stroke-dasharray:2.8715,1.4355;" cx="220.167" cy="16" r="15"/>
	
		<circle style="fill:none;stroke:#B2B2B2;stroke-width:0.4252;stroke-miterlimit:10;stroke-dasharray:2.8715,1.4355;" cx="64.937" cy="16" r="15"/>
	
		<circle style="fill:none;stroke:#B2B2B2;stroke-width:0.4252;stroke-miterlimit:10;stroke-dasharray:2.8715,1.4355;" cx="55.274" cy="5.943" r="15"/>
	
		<circle style="fill:none;stroke:#B2B2B2;stroke-width:0.4252;stroke-miterlimit:10;stroke-dasharray:2.8715,1.4355;" cx="110" cy="16" r="15"/>
	
		<circle style="fill:none;stroke:#B2B2B2;stroke-width:0.4252;stroke-miterlimit:10;stroke-dasharray:2.8715,1.4355;" cx="85.274" cy="16" r="15"/>
	
		<circle style="fill:none;stroke:#B2B2B2;stroke-width:0.4252;stroke-miterlimit:10;stroke-dasharray:2.8715,1.4355;" cx="149.928" cy="16" r="15"/>
	
		<circle style="fill:none;stroke:#B2B2B2;stroke-width:0.4252;stroke-miterlimit:10;stroke-dasharray:2.8715,1.4355;" cx="179.978" cy="16" r="15"/>
	
		<line style="fill:none;stroke:#E5007D;stroke-width:0.2637;stroke-miterlimit:10;stroke-dasharray:1.7811,0.8904;" x1="15.05" y1="-4.447" x2="15.05" y2="36.333"/>
	
		<line style="fill:none;stroke:#E5007D;stroke-width:0.2637;stroke-miterlimit:10;stroke-dasharray:1.7811,0.8904;" x1="40.274" y1="-4.447" x2="40.274" y2="36.333"/>
	
		<line style="fill:none;stroke:#E5007D;stroke-width:0.2637;stroke-miterlimit:10;stroke-dasharray:1.7811,0.8904;" x1="95" y1="-4.447" x2="95" y2="36.334"/>
	
		<line style="fill:none;stroke:#E5007D;stroke-width:0.2637;stroke-miterlimit:10;stroke-dasharray:1.7811,0.8904;" x1="100.1" y1="-4.447" x2="100.1" y2="36.334"/>
	
		<line style="fill:none;stroke:#E5007D;stroke-width:0.2637;stroke-miterlimit:10;stroke-dasharray:1.7811,0.8904;" x1="135.067" y1="-4.447" x2="135.067" y2="36.334"/>
	
		<line style="fill:none;stroke:#E5007D;stroke-width:0.2637;stroke-miterlimit:10;stroke-dasharray:1.7811,0.8904;" x1="145.167" y1="-4.447" x2="145.167" y2="36.334"/>
	
		<line style="fill:none;stroke:#E5007D;stroke-width:0.2637;stroke-miterlimit:10;stroke-dasharray:1.7811,0.8904;" x1="215" y1="-4.447" x2="215" y2="36.334"/>
	
		<line style="fill:none;stroke:#E5007D;stroke-width:0.2268;stroke-miterlimit:10;stroke-dasharray:2.8715,1.1339;" x1="-0.833" y1="1" x2="242.833" y2="1"/>
	
		<line style="fill:none;stroke:#E5007D;stroke-width:0.2268;stroke-miterlimit:10;stroke-dasharray:2.8715,1.1339;" x1="-0.833" y1="31" x2="242.833" y2="31"/>
	
		<circle style="fill:none;stroke:#E5007D;stroke-width:0.2399;stroke-miterlimit:10;stroke-dasharray:3.0382,1.1997;" cx="25.274" cy="16" r="5"/>
	
		<circle style="fill:none;stroke:#E5007D;stroke-width:0.2399;stroke-miterlimit:10;stroke-dasharray:3.0382,1.1997;" cx="65.141" cy="16" r="5"/>
	
		<circle style="fill:none;stroke:#E5007D;stroke-width:0.2399;stroke-miterlimit:10;stroke-dasharray:3.0382,1.1997;" cx="110.281" cy="16" r="5"/>
	
		<circle style="fill:none;stroke:#E5007D;stroke-width:0.2399;stroke-miterlimit:10;stroke-dasharray:3.0382,1.1997;" cx="165.127" cy="16" r="5"/>
	
		<circle style="fill:none;stroke:#E5007D;stroke-width:0.2399;stroke-miterlimit:10;stroke-dasharray:3.0382,1.1997;" cx="219.917" cy="16" r="5"/>
</g>
</svg>
