<?xml version="1.0" encoding="utf-8"?>
<!-- Generator: Adobe Illustrator 16.0.0, SVG Export Plug-In . SVG Version: 6.00 Build 0)  -->
<!DOCTYPE svg PUBLIC "-//W3C//DTD SVG 1.1//EN" "http://www.w3.org/Graphics/SVG/1.1/DTD/svg11.dtd">
<svg version="1.1" id="Layer_1" xmlns="http://www.w3.org/2000/svg" xmlns:xlink="http://www.w3.org/1999/xlink" x="0px" y="0px"
	 width="480px" height="480px" viewBox="0 0 480 480" enable-background="new 0 0 480 480" xml:space="preserve">
<g>
	<g>
		<path fill="#E52620" d="M456.5,387.366c0,38.182-30.952,69.134-69.134,69.134H91.634c-38.182,0-69.134-30.952-69.134-69.134
			V91.634C22.5,53.452,53.452,22.5,91.634,22.5h295.732c38.182,0,69.134,30.952,69.134,69.134V387.366z"/>
	</g>
	<ellipse fill="#010202" cx="239.84" cy="107.969" rx="115.385" ry="39.058"/>
	
		<ellipse fill="none" stroke="#010202" stroke-width="16.8922" stroke-miterlimit="10" cx="239.842" cy="84.458" rx="179.58" ry="61.486"/>
	<g>
		<path fill="none" stroke="#010202" stroke-width="17" stroke-miterlimit="10" d="M457,386.866
			C457,425.048,426.048,456,387.866,456H92.134C53.952,456,23,425.048,23,386.866V91.134C23,52.952,53.952,22,92.134,22h295.732
			C426.048,22,457,52.952,457,91.134V386.866z"/>
	</g>
	
		<line fill="none" stroke="#010202" stroke-width="16" stroke-linecap="round" stroke-miterlimit="10" x1="228.5" y1="452.5" x2="228.5" y2="234.5"/>
	
		<line fill="none" stroke="#010202" stroke-width="16" stroke-linecap="round" stroke-miterlimit="10" x1="179.5" y1="452.5" x2="179.5" y2="286.5"/>
	
		<line fill="none" stroke="#010202" stroke-width="16" stroke-linecap="round" stroke-miterlimit="10" x1="280.5" y1="452.5" x2="280.5" y2="286.5"/>
	
		<line fill="none" stroke="#010202" stroke-width="16" stroke-linecap="round" stroke-miterlimit="10" x1="130.5" y1="452.5" x2="130.5" y2="354.5"/>
	
		<line fill="none" stroke="#010202" stroke-width="16" stroke-linecap="round" stroke-miterlimit="10" x1="329.5" y1="452.5" x2="329.5" y2="354.5"/>
</g>
</svg>
