<?xml version="1.0" encoding="utf-8"?>
<!-- Generator: Adobe Illustrator 16.0.0, SVG Export Plug-In . SVG Version: 6.00 Build 0)  -->
<svg version="1.2" baseProfile="tiny"
	 id="svg" xmlns:inkscape="http://www.inkscape.org/namespaces/inkscape" xmlns:sodipodi="http://sodipodi.sourceforge.net/DTD/sodipodi-0.dtd" xmlns:svg="http://www.w3.org/2000/svg" inkscape:version="1.4 (86a8ad7, 2024-10-11)" sodipodi:docname="pxlngn.svg"
	 xmlns="http://www.w3.org/2000/svg" xmlns:xlink="http://www.w3.org/1999/xlink" x="0px" y="0px" width="250px" height="34px"
	 viewBox="515 356.333 250 34" xml:space="preserve">
<g>
	<path id="ngn" d="M608.992,378.892c-4.477,0-5.493-3.063-5.561-5.559c0-6.695-4.43-16.661-16.656-16.661
		c-8.31,0-13.022,4.609-15.184,9.665c-1.099-1.124-1.447-2.725-1.483-4.177v-5.488h-11.101v5.555c0,0.737,0.137,7.373,4.915,12.155
		c1.073,1.067,2.594,2.245,4.651,3.124c-0.843,0.832-2.114,1.386-4.014,1.386H558.2c0.51-1.646,0.807-3.487,0.807-5.559
		c0-12.229-9.969-16.661-16.662-16.661h-11.106v11.104h11.106c2.494,0.065,5.55,1.084,5.55,5.557c0,4.468-3.046,5.486-5.607,5.559
		h-7.545h-3.504c-9.102,0-13.887,5.515-15.739,11.103h49.058c5.977,0,9.685-2.45,11.747-4.507c0.296-0.3,0.575-0.606,0.833-0.917
		c3.227,0.605,4.026,3.228,4.081,5.424h11.112c0-5.57-3.082-13.395-11.148-15.872c0.023-0.391,0.036-0.669,0.036-0.789
		c0.063-2.5,1.087-5.557,5.556-5.557c4.47,0,5.488,3.057,5.556,5.557c0,6.697,4.43,16.661,16.661,16.661h11.102v-11.103H608.992z"/>
	<path id="pxl" d="M742.36,371.771l-10.06-15.099h-6.678h-5.556v16.661c-0.062,2.497-1.08,5.559-5.554,5.559h-5.556h-11.106
		c-2.493-0.066-5.55-1.087-5.55-5.559v-5.556h22.212v-11.105H681.19c-11.31,0-15.947,8.519-16.583,15.099l-10.065-15.099h-6.676
		h-5.551v16.661c-0.066,2.497-1.081,5.559-5.558,5.559h-11.104v11.103h11.104c11.308,0,15.948-8.519,16.587-15.099l10.063,15.099
		h6.677h5.557v-16.661c0.063-2.5,1.077-5.556,5.55-5.556v5.556c0,12.225,9.972,16.661,16.661,16.661h16.662
		c11.311,0,15.949-8.519,16.583-15.099l10.067,15.099h6.674h5.551v-16.661c0.067-2.5,1.084-5.556,5.562-5.556h5.55v-11.105h-5.55
		C747.639,356.672,743.001,365.191,742.36,371.771"/>
</g>
</svg>
