<?xml version="1.0" encoding="UTF-8" standalone="no"?>
<!-- Created with Inkscape (http://www.inkscape.org/) -->

<svg
   width="226"
   height="32"
   viewBox="0 0 226 31.999992"
   version="1.1"
   id="svg1"
   xml:space="preserve"
   inkscape:version="1.4 (86a8ad7, 2024-10-11)"
   sodipodi:docname="pxlngn.svg"
   xmlns:inkscape="http://www.inkscape.org/namespaces/inkscape"
   xmlns:sodipodi="http://sodipodi.sourceforge.net/DTD/sodipodi-0.dtd"
   xmlns="http://www.w3.org/2000/svg"
   xmlns:svg="http://www.w3.org/2000/svg"><sodipodi:namedview
     id="namedview1"
     pagecolor="#ffffff"
     bordercolor="#000000"
     borderopacity="0.25"
     inkscape:showpageshadow="2"
     inkscape:pageopacity="0.0"
     inkscape:pagecheckerboard="0"
     inkscape:deskcolor="#d1d1d1"
     inkscape:document-units="px"
     inkscape:zoom="0.76497396"
     inkscape:cx="250.33532"
     inkscape:cy="480.40851"
     inkscape:window-width="2560"
     inkscape:window-height="1377"
     inkscape:window-x="-8"
     inkscape:window-y="-8"
     inkscape:window-maximized="1"
     inkscape:current-layer="layer1" /><defs
     id="defs1"><pattern
       id="EMFhbasepattern"
       patternUnits="userSpaceOnUse"
       width="6"
       height="6"
       x="0"
       y="0" /></defs><g
     inkscape:label="Ebene 1"
     inkscape:groupmode="layer"
     id="layer1"><g
       id="g1"
       transform="matrix(0.89999982,0,0,0.89999982,-252.39993,-292.69994)"><path
         style="fill:#ada79e;fill-opacity:1;fill-rule:nonzero;stroke:none"
         d="m 375,348.66667 c -4.66667,0 -5.66667,-3.33334 -5.66667,-5.66667 0,-6.66667 -4.33333,-16.66667 -16.66666,-16.66667 -8.33334,0 -13,4.66667 -15,9.66667 C 336.33333,335 336,333.33333 336,331.66667 c 0,-5.33334 0,-5.33334 0,-5.33334 -11,0 -11,0 -11,0 C 325,332 325,332 325,332 c 0,0.66667 0,7.33333 5,12 1,1 2.33333,2.33333 4.66667,3.33333 -1,0.66667 -2.33334,1.33334 -4,1.33334 -6.33334,0 -6.33334,0 -6.33334,0 C 324.66667,347 325,345 325,343 c 0,-12.33333 -10,-16.66667 -16.66667,-16.66667 -11,0 -11,0 -11,0 0,11 0,11 0,11 11,0 11,0 11,0 C 310.66667,337.66667 314,338.66667 314,343 c 0,4.33333 -3.33333,5.33333 -5.66667,5.66667 -7.66666,0 -7.66666,0 -7.66666,0 -2,0 -3.33334,0 -3.33334,0 -9.33333,0 -14,5.33333 -16,11 49.33334,0 49.33334,0 49.33334,0 6,0 9.66666,-2.33334 11.66666,-4.66667 0.33334,0 0.66667,-0.33333 0.66667,-0.66667 3.33333,0.66667 4,3 4.33333,5.33334 11,0 11,0 11,0 0,-5.66667 -3,-13.33334 -11.33333,-16 0.33333,-0.33334 0.33333,-0.66667 0.33333,-0.66667 0,-2.66667 1,-5.66667 5.33334,-5.66667 4.66666,0 5.66666,3 5.66666,5.66667 0,6.66667 4.33334,16.66667 16.66667,16.66667 11,0 11,0 11,0 0,-11 0,-11 0,-11 z"
         id="path1" /><path
         style="fill:#ada79e;fill-opacity:1;fill-rule:nonzero;stroke:none"
         d="m 508.33333,341.33333 c -10,-15 -10,-15 -10,-15 -6.66666,0 -6.66666,0 -6.66666,0 -5.66667,0 -5.66667,0 -5.66667,0 C 486,343 486,343 486,343 c 0,2.33333 -1,5.66667 -5.33333,5.66667 0,0 0,0 0,0 -5.66667,0 -5.66667,0 -5.66667,0 0,0 0,0 0,0 -11,0 -11,0 -11,0 -2.66667,-0.33334 -5.66667,-1.33334 -5.66667,-5.66667 0,-5.66667 0,-5.66667 0,-5.66667 22.33334,0 22.33334,0 22.33334,0 0,-11 0,-11 0,-11 -33.33334,0 -33.33334,0 -33.33334,0 -11.33333,0 -16,8.66667 -16.66666,15 -10,-15 -10,-15 -10,-15 -6.66667,0 -6.66667,0 -6.66667,0 -5.66667,0 -5.66667,0 -5.66667,0 0,16.66667 0,16.66667 0,16.66667 0,2.33333 -1,5.66667 -5.66666,5.66667 -11,0 -11,0 -11,0 0,11 0,11 0,11 11,0 11,0 11,0 11.33333,0 16,-8.66667 16.66666,-15 10,15 10,15 10,15 6.66667,0 6.66667,0 6.66667,0 5.66667,0 5.66667,0 5.66667,0 0,-16.66667 0,-16.66667 0,-16.66667 0,-2.66667 1,-5.66667 5.66666,-5.66667 0,5.66667 0,5.66667 0,5.66667 0,12.33333 10,16.66667 16.66667,16.66667 16.66667,0 16.66667,0 16.66667,0 11.33333,0 15.66666,-8.66667 16.33333,-15 10.33333,15 10.33333,15 10.33333,15 6.66667,0 6.66667,0 6.66667,0 5.33333,0 5.33333,0 5.33333,0 0,-16.66667 0,-16.66667 0,-16.66667 0,-2.66667 1,-5.66667 5.66667,-5.66667 5.66667,0 5.66667,0 5.66667,0 0,-11 0,-11 0,-11 -5.66667,0 -5.66667,0 -5.66667,0 -11.33333,0 -16,8.66667 -16.66667,15 z"
         id="path2" /></g></g></svg>
